<mxfile host="app.diagrams.net" modified="2020-06-07T03:25:14.442Z" agent="5.0 (Windows NT 6.1; Win64; x64) AppleWebKit/537.36 (KHTML, like Gecko) Chrome/83.0.4103.61 Safari/537.36" etag="TBVq8qSYgfPRwqjdQVGV" version="13.1.14" type="github">
  <diagram id="N4XKAe0evmiGF1OXxbqd" name="第 1 页">
    <mxGraphModel dx="868" dy="450" grid="1" gridSize="10" guides="1" tooltips="1" connect="1" arrows="1" fold="1" page="1" pageScale="1" pageWidth="827" pageHeight="1169" math="0" shadow="0">
      <root>
        <mxCell id="0" />
        <mxCell id="1" parent="0" />
        <mxCell id="RbAn3gU3g-aYpH11nwkH-1" value="" style="whiteSpace=wrap;html=1;aspect=fixed;" vertex="1" parent="1">
          <mxGeometry x="349" y="60" width="202" height="202" as="geometry" />
        </mxCell>
        <mxCell id="RbAn3gU3g-aYpH11nwkH-2" value="" style="aspect=fixed;pointerEvents=1;shadow=0;dashed=0;html=1;strokeColor=none;labelPosition=center;verticalLabelPosition=bottom;verticalAlign=top;align=center;fillColor=#00188D;shape=mxgraph.mscae.enterprise.server_generic" vertex="1" parent="1">
          <mxGeometry x="380" y="70" width="43.2" height="90" as="geometry" />
        </mxCell>
        <mxCell id="RbAn3gU3g-aYpH11nwkH-3" value="" style="aspect=fixed;pointerEvents=1;shadow=0;dashed=0;html=1;strokeColor=none;labelPosition=center;verticalLabelPosition=bottom;verticalAlign=top;align=center;fillColor=#00188D;shape=mxgraph.azure.virtual_machine_feature" vertex="1" parent="1">
          <mxGeometry x="370" y="180" width="50" height="45" as="geometry" />
        </mxCell>
        <mxCell id="RbAn3gU3g-aYpH11nwkH-4" value="" style="aspect=fixed;pointerEvents=1;shadow=0;dashed=0;html=1;strokeColor=none;labelPosition=center;verticalLabelPosition=bottom;verticalAlign=top;align=center;fillColor=#00188D;shape=mxgraph.mscae.enterprise.server_generic" vertex="1" parent="1">
          <mxGeometry x="469.8" y="70" width="43.2" height="90" as="geometry" />
        </mxCell>
        <mxCell id="RbAn3gU3g-aYpH11nwkH-5" value="" style="aspect=fixed;pointerEvents=1;shadow=0;dashed=0;html=1;strokeColor=none;labelPosition=center;verticalLabelPosition=bottom;verticalAlign=top;align=center;fillColor=#00188D;shape=mxgraph.azure.virtual_machine_feature" vertex="1" parent="1">
          <mxGeometry x="470" y="180" width="50" height="45" as="geometry" />
        </mxCell>
        <mxCell id="RbAn3gU3g-aYpH11nwkH-6" value="&lt;font style=&quot;font-size: 25px&quot;&gt;VRM&lt;/font&gt;" style="text;html=1;resizable=0;autosize=1;align=center;verticalAlign=middle;points=[];fillColor=none;strokeColor=none;rounded=0;" vertex="1" parent="1">
          <mxGeometry x="411" y="231" width="70" height="20" as="geometry" />
        </mxCell>
        <mxCell id="RbAn3gU3g-aYpH11nwkH-7" value="" style="rounded=0;whiteSpace=wrap;html=1;" vertex="1" parent="1">
          <mxGeometry x="160" y="360" width="210" height="150" as="geometry" />
        </mxCell>
        <mxCell id="RbAn3gU3g-aYpH11nwkH-8" value="" style="aspect=fixed;pointerEvents=1;shadow=0;dashed=0;html=1;strokeColor=none;labelPosition=center;verticalLabelPosition=bottom;verticalAlign=top;align=center;fillColor=#00188D;shape=mxgraph.mscae.enterprise.server_generic" vertex="1" parent="1">
          <mxGeometry x="184" y="375" width="24" height="50" as="geometry" />
        </mxCell>
        <mxCell id="RbAn3gU3g-aYpH11nwkH-9" value="" style="aspect=fixed;pointerEvents=1;shadow=0;dashed=0;html=1;strokeColor=none;labelPosition=center;verticalLabelPosition=bottom;verticalAlign=top;align=center;fillColor=#00188D;shape=mxgraph.mscae.enterprise.server_generic" vertex="1" parent="1">
          <mxGeometry x="220" y="375" width="24" height="50" as="geometry" />
        </mxCell>
        <mxCell id="RbAn3gU3g-aYpH11nwkH-10" value="" style="aspect=fixed;pointerEvents=1;shadow=0;dashed=0;html=1;strokeColor=none;labelPosition=center;verticalLabelPosition=bottom;verticalAlign=top;align=center;fillColor=#00188D;shape=mxgraph.mscae.enterprise.server_generic" vertex="1" parent="1">
          <mxGeometry x="255" y="375" width="24" height="50" as="geometry" />
        </mxCell>
        <mxCell id="RbAn3gU3g-aYpH11nwkH-11" value="" style="aspect=fixed;pointerEvents=1;shadow=0;dashed=0;html=1;strokeColor=none;labelPosition=center;verticalLabelPosition=bottom;verticalAlign=top;align=center;fillColor=#00188D;shape=mxgraph.mscae.enterprise.server_generic" vertex="1" parent="1">
          <mxGeometry x="290" y="375" width="24" height="50" as="geometry" />
        </mxCell>
        <mxCell id="RbAn3gU3g-aYpH11nwkH-12" value="" style="aspect=fixed;pointerEvents=1;shadow=0;dashed=0;html=1;strokeColor=none;labelPosition=center;verticalLabelPosition=bottom;verticalAlign=top;align=center;fillColor=#00188D;shape=mxgraph.mscae.enterprise.server_generic" vertex="1" parent="1">
          <mxGeometry x="325" y="375" width="24" height="50" as="geometry" />
        </mxCell>
        <mxCell id="RbAn3gU3g-aYpH11nwkH-13" value="&lt;font style=&quot;font-size: 25px&quot;&gt;CNA&lt;/font&gt;" style="text;html=1;resizable=0;autosize=1;align=center;verticalAlign=middle;points=[];fillColor=none;strokeColor=none;rounded=0;" vertex="1" parent="1">
          <mxGeometry x="230" y="330" width="70" height="20" as="geometry" />
        </mxCell>
        <mxCell id="RbAn3gU3g-aYpH11nwkH-14" value="&lt;span style=&quot;font-size: 25px&quot;&gt;集群1&lt;/span&gt;" style="text;html=1;resizable=0;autosize=1;align=center;verticalAlign=middle;points=[];fillColor=none;strokeColor=none;rounded=0;" vertex="1" parent="1">
          <mxGeometry x="225" y="488" width="80" height="20" as="geometry" />
        </mxCell>
        <mxCell id="RbAn3gU3g-aYpH11nwkH-15" value="" style="rounded=0;whiteSpace=wrap;html=1;" vertex="1" parent="1">
          <mxGeometry x="530" y="360" width="210" height="150" as="geometry" />
        </mxCell>
        <mxCell id="RbAn3gU3g-aYpH11nwkH-16" value="" style="aspect=fixed;pointerEvents=1;shadow=0;dashed=0;html=1;strokeColor=none;labelPosition=center;verticalLabelPosition=bottom;verticalAlign=top;align=center;fillColor=#00188D;shape=mxgraph.mscae.enterprise.server_generic" vertex="1" parent="1">
          <mxGeometry x="560" y="375" width="24" height="50" as="geometry" />
        </mxCell>
        <mxCell id="RbAn3gU3g-aYpH11nwkH-17" value="" style="aspect=fixed;pointerEvents=1;shadow=0;dashed=0;html=1;strokeColor=none;labelPosition=center;verticalLabelPosition=bottom;verticalAlign=top;align=center;fillColor=#00188D;shape=mxgraph.mscae.enterprise.server_generic" vertex="1" parent="1">
          <mxGeometry x="623" y="375" width="24" height="50" as="geometry" />
        </mxCell>
        <mxCell id="RbAn3gU3g-aYpH11nwkH-18" value="" style="aspect=fixed;pointerEvents=1;shadow=0;dashed=0;html=1;strokeColor=none;labelPosition=center;verticalLabelPosition=bottom;verticalAlign=top;align=center;fillColor=#00188D;shape=mxgraph.mscae.enterprise.server_generic" vertex="1" parent="1">
          <mxGeometry x="690" y="375" width="24" height="50" as="geometry" />
        </mxCell>
        <mxCell id="RbAn3gU3g-aYpH11nwkH-19" value="&lt;font style=&quot;font-size: 25px&quot;&gt;CNA&lt;/font&gt;" style="text;html=1;resizable=0;autosize=1;align=center;verticalAlign=middle;points=[];fillColor=none;strokeColor=none;rounded=0;" vertex="1" parent="1">
          <mxGeometry x="600" y="330" width="70" height="20" as="geometry" />
        </mxCell>
        <mxCell id="RbAn3gU3g-aYpH11nwkH-20" value="&lt;span style=&quot;font-size: 25px&quot;&gt;集群2&lt;/span&gt;" style="text;html=1;resizable=0;autosize=1;align=center;verticalAlign=middle;points=[];fillColor=none;strokeColor=none;rounded=0;" vertex="1" parent="1">
          <mxGeometry x="595" y="484" width="80" height="20" as="geometry" />
        </mxCell>
        <mxCell id="RbAn3gU3g-aYpH11nwkH-21" value="" style="pointerEvents=1;shadow=0;dashed=0;html=1;strokeColor=none;fillColor=#434445;aspect=fixed;labelPosition=center;verticalLabelPosition=bottom;verticalAlign=top;align=center;outlineConnect=0;shape=mxgraph.vvd.vm_group;" vertex="1" parent="1">
          <mxGeometry x="180.5" y="430" width="49.5" height="50" as="geometry" />
        </mxCell>
        <mxCell id="RbAn3gU3g-aYpH11nwkH-22" value="" style="pointerEvents=1;shadow=0;dashed=0;html=1;strokeColor=none;fillColor=#434445;aspect=fixed;labelPosition=center;verticalLabelPosition=bottom;verticalAlign=top;align=center;outlineConnect=0;shape=mxgraph.vvd.vm_group;" vertex="1" parent="1">
          <mxGeometry x="240.25" y="430" width="49.5" height="50" as="geometry" />
        </mxCell>
        <mxCell id="RbAn3gU3g-aYpH11nwkH-23" value="" style="pointerEvents=1;shadow=0;dashed=0;html=1;strokeColor=none;fillColor=#434445;aspect=fixed;labelPosition=center;verticalLabelPosition=bottom;verticalAlign=top;align=center;outlineConnect=0;shape=mxgraph.vvd.vm_group;" vertex="1" parent="1">
          <mxGeometry x="300" y="430" width="49.5" height="50" as="geometry" />
        </mxCell>
        <mxCell id="RbAn3gU3g-aYpH11nwkH-24" value="" style="pointerEvents=1;shadow=0;dashed=0;html=1;strokeColor=none;fillColor=#434445;aspect=fixed;labelPosition=center;verticalLabelPosition=bottom;verticalAlign=top;align=center;outlineConnect=0;shape=mxgraph.vvd.vm_group;" vertex="1" parent="1">
          <mxGeometry x="560" y="430" width="49.5" height="50" as="geometry" />
        </mxCell>
        <mxCell id="RbAn3gU3g-aYpH11nwkH-25" value="" style="pointerEvents=1;shadow=0;dashed=0;html=1;strokeColor=none;fillColor=#434445;aspect=fixed;labelPosition=center;verticalLabelPosition=bottom;verticalAlign=top;align=center;outlineConnect=0;shape=mxgraph.vvd.vm_group;" vertex="1" parent="1">
          <mxGeometry x="660" y="430" width="49.5" height="50" as="geometry" />
        </mxCell>
        <mxCell id="RbAn3gU3g-aYpH11nwkH-26" value="" style="endArrow=none;html=1;entryX=0.25;entryY=1;entryDx=0;entryDy=0;exitX=0.671;exitY=0;exitDx=0;exitDy=0;exitPerimeter=0;" edge="1" parent="1" source="RbAn3gU3g-aYpH11nwkH-7" target="RbAn3gU3g-aYpH11nwkH-1">
          <mxGeometry width="50" height="50" relative="1" as="geometry">
            <mxPoint x="420" y="320" as="sourcePoint" />
            <mxPoint x="460" y="270" as="targetPoint" />
          </mxGeometry>
        </mxCell>
        <mxCell id="RbAn3gU3g-aYpH11nwkH-27" value="" style="endArrow=none;html=1;entryX=0.644;entryY=1.005;entryDx=0;entryDy=0;entryPerimeter=0;exitX=0.357;exitY=-0.027;exitDx=0;exitDy=0;exitPerimeter=0;" edge="1" parent="1" source="RbAn3gU3g-aYpH11nwkH-15" target="RbAn3gU3g-aYpH11nwkH-1">
          <mxGeometry width="50" height="50" relative="1" as="geometry">
            <mxPoint x="420" y="320" as="sourcePoint" />
            <mxPoint x="470" y="270" as="targetPoint" />
          </mxGeometry>
        </mxCell>
        <mxCell id="RbAn3gU3g-aYpH11nwkH-28" value="" style="aspect=fixed;pointerEvents=1;shadow=0;dashed=0;html=1;strokeColor=none;labelPosition=center;verticalLabelPosition=bottom;verticalAlign=top;align=center;fillColor=#00188D;shape=mxgraph.mscae.enterprise.server_generic" vertex="1" parent="1">
          <mxGeometry x="276.4" y="580" width="43.2" height="90" as="geometry" />
        </mxCell>
        <mxCell id="RbAn3gU3g-aYpH11nwkH-29" value="" style="aspect=fixed;pointerEvents=1;shadow=0;dashed=0;html=1;strokeColor=none;labelPosition=center;verticalLabelPosition=bottom;verticalAlign=top;align=center;fillColor=#00188D;shape=mxgraph.mscae.enterprise.server_generic" vertex="1" parent="1">
          <mxGeometry x="490.8" y="580" width="43.2" height="90" as="geometry" />
        </mxCell>
        <mxCell id="RbAn3gU3g-aYpH11nwkH-30" value="&lt;font style=&quot;font-size: 25px&quot;&gt;VRM1&lt;br&gt;主&lt;br&gt;&lt;/font&gt;" style="text;html=1;resizable=0;autosize=1;align=center;verticalAlign=middle;points=[];fillColor=none;strokeColor=none;rounded=0;" vertex="1" parent="1">
          <mxGeometry x="181" y="605" width="80" height="40" as="geometry" />
        </mxCell>
        <mxCell id="RbAn3gU3g-aYpH11nwkH-31" value="&lt;font style=&quot;font-size: 25px&quot;&gt;VRM2&lt;br&gt;备&lt;br&gt;&lt;/font&gt;" style="text;html=1;resizable=0;autosize=1;align=center;verticalAlign=middle;points=[];fillColor=none;strokeColor=none;rounded=0;" vertex="1" parent="1">
          <mxGeometry x="541" y="605" width="80" height="40" as="geometry" />
        </mxCell>
        <mxCell id="RbAn3gU3g-aYpH11nwkH-32" value="" style="shape=mxgraph.cisco.switches.layer_2_remote_switch;html=1;pointerEvents=1;dashed=0;fillColor=#036897;strokeColor=#ffffff;strokeWidth=2;verticalLabelPosition=bottom;verticalAlign=top;align=center;outlineConnect=0;" vertex="1" parent="1">
          <mxGeometry x="351.1" y="764" width="101" height="50" as="geometry" />
        </mxCell>
        <mxCell id="RbAn3gU3g-aYpH11nwkH-33" value="1.1.1.1" style="text;html=1;align=center;verticalAlign=middle;resizable=0;points=[];autosize=1;" vertex="1" parent="1">
          <mxGeometry x="250.75" y="670" width="50" height="20" as="geometry" />
        </mxCell>
        <mxCell id="RbAn3gU3g-aYpH11nwkH-34" value="" style="endArrow=none;html=1;entryX=0.5;entryY=1;entryDx=0;entryDy=0;entryPerimeter=0;" edge="1" parent="1" target="RbAn3gU3g-aYpH11nwkH-29">
          <mxGeometry width="50" height="50" relative="1" as="geometry">
            <mxPoint x="452" y="786" as="sourcePoint" />
            <mxPoint x="512.3999999999999" y="676" as="targetPoint" />
            <Array as="points">
              <mxPoint x="513" y="786" />
            </Array>
          </mxGeometry>
        </mxCell>
        <mxCell id="RbAn3gU3g-aYpH11nwkH-35" value="" style="endArrow=none;html=1;exitX=0;exitY=0.5;exitDx=0;exitDy=0;exitPerimeter=0;" edge="1" parent="1">
          <mxGeometry width="50" height="50" relative="1" as="geometry">
            <mxPoint x="355.0999999999999" y="785" as="sourcePoint" />
            <mxPoint x="301.5" y="666" as="targetPoint" />
            <Array as="points">
              <mxPoint x="334" y="785" />
              <mxPoint x="302" y="785" />
            </Array>
          </mxGeometry>
        </mxCell>
        <mxCell id="RbAn3gU3g-aYpH11nwkH-36" value="1.1.1.2" style="text;html=1;align=center;verticalAlign=middle;resizable=0;points=[];autosize=1;" vertex="1" parent="1">
          <mxGeometry x="510" y="670" width="50" height="20" as="geometry" />
        </mxCell>
        <mxCell id="RbAn3gU3g-aYpH11nwkH-37" value="&lt;font style=&quot;font-size: 20px&quot;&gt;浮动地址&lt;br&gt;1.1.1.3&lt;/font&gt;" style="text;html=1;align=center;verticalAlign=middle;resizable=0;points=[];autosize=1;" vertex="1" parent="1">
          <mxGeometry x="350" y="685" width="100" height="40" as="geometry" />
        </mxCell>
        <mxCell id="RbAn3gU3g-aYpH11nwkH-38" value="" style="endArrow=none;dashed=1;html=1;entryX=0;entryY=0.556;entryDx=0;entryDy=0;entryPerimeter=0;" edge="1" parent="1" target="RbAn3gU3g-aYpH11nwkH-29">
          <mxGeometry width="50" height="50" relative="1" as="geometry">
            <mxPoint x="320" y="630" as="sourcePoint" />
            <mxPoint x="370" y="580" as="targetPoint" />
          </mxGeometry>
        </mxCell>
        <mxCell id="RbAn3gU3g-aYpH11nwkH-39" value="&lt;font style=&quot;font-size: 15px&quot;&gt;心跳&lt;/font&gt;" style="text;html=1;align=center;verticalAlign=middle;resizable=0;points=[];autosize=1;" vertex="1" parent="1">
          <mxGeometry x="372" y="606" width="50" height="20" as="geometry" />
        </mxCell>
      </root>
    </mxGraphModel>
  </diagram>
</mxfile>
